# 3ds Max Wavefront OBJ Exporter v0.97b - (c)2007 guruware
# File Created: 19.10.2017 13:11:57

#
# object Shovel_2
#

v  -0.019832 -0.498003 0.020482
v  0.019885 -0.498003 0.020482
v  -0.019832 -0.498003 -0.019720
v  0.019885 -0.498003 -0.019720
v  -0.019832 0.825930 0.020482
v  0.019885 0.825930 0.020482
v  -0.019832 0.825930 -0.019720
v  0.019885 0.825930 -0.019720
v  -0.121811 -0.825930 0.078892
v  -0.121811 -0.825930 0.065354
v  0.121864 -0.825930 0.065354
v  0.121864 -0.825930 0.078892
v  -0.144713 -0.498003 0.020482
v  -0.144713 -0.498003 -0.019720
v  -0.144713 -0.702497 0.065354
v  -0.144713 -0.702497 0.078892
v  0.144766 -0.498003 -0.019720
v  0.144766 -0.498003 0.020482
v  0.144766 -0.702497 0.078892
v  0.144766 -0.702497 0.065354
v  -0.062108 -0.539427 -0.038663
v  -0.062108 -0.539427 -0.078865
v  0.062161 -0.539427 -0.078865
v  0.062161 -0.539427 -0.038663
v  -0.144713 -0.539427 -0.053950
v  -0.144713 -0.539427 -0.013749
v  0.144766 -0.539427 -0.013749
v  0.144766 -0.539427 -0.053950
# 28 vertices

vn 0.000000 -1.000000 -0.000000
vn 0.000000 -1.000000 -0.000000
vn 0.000000 -1.000000 -0.000000
vn 0.000000 1.000000 -0.000000
vn 0.000000 1.000000 -0.000000
vn 0.000000 1.000000 -0.000000
vn 0.000000 0.000000 1.000000
vn 0.000000 0.000000 1.000000
vn 0.000000 0.000000 1.000000
vn 1.000000 0.000000 -0.000000
vn 1.000000 0.000000 -0.000000
vn 1.000000 0.000000 -0.000000
vn 0.000000 0.000000 -1.000000
vn 0.000000 0.000000 -1.000000
vn 0.000000 0.000000 -1.000000
vn -1.000000 0.000000 -0.000000
vn -1.000000 0.000000 -0.000000
vn -1.000000 0.000000 -0.000000
vn -1.000000 0.000000 -0.000000
vn -1.000000 0.000000 -0.000000
vn -1.000000 0.000000 -0.000000
vn 0.000000 0.819088 -0.573668
vn 0.000000 0.819088 -0.573668
vn 0.000000 0.819088 -0.573668
vn 1.000000 0.000000 -0.000000
vn 1.000000 0.000000 -0.000000
vn 1.000000 0.000000 -0.000000
vn 0.000000 -0.819088 0.573668
vn 0.000000 -0.819088 0.573668
vn 0.000000 -0.819088 0.573668
vn 0.000000 1.000000 -0.000000
vn 0.000000 1.000000 -0.000000
vn 0.000000 1.000000 -0.000000
vn 0.000000 0.819088 -0.573668
vn 0.000000 0.819088 -0.573668
vn 0.000000 0.819088 -0.573668
vn -0.983219 -0.182430 -0.000000
vn -0.983219 -0.182430 -0.000000
vn -0.983219 -0.182430 -0.000000
vn 0.714984 0.132660 0.686440
vn 0.714984 0.132660 0.686440
vn 0.714984 0.132660 0.686440
vn 0.000000 1.000000 -0.000000
vn 0.000000 1.000000 -0.000000
vn 0.000000 1.000000 -0.000000
vn 0.000000 -0.819088 0.573668
vn 0.000000 -0.819088 0.573668
vn 0.000000 -0.819088 0.573668
vn 0.983219 -0.182429 -0.000000
vn 0.983219 -0.182429 -0.000000
vn 0.983219 -0.182429 -0.000000
vn 0.779243 -0.144583 -0.609817
vn 0.779243 -0.144583 -0.609817
vn 0.779243 -0.144583 -0.609817
vn -1.000000 0.000000 -0.000000
vn -1.000000 0.000000 -0.000000
vn -1.000000 0.000000 -0.000000
vn 0.000000 -0.449623 -0.893219
vn 0.000000 -0.449623 -0.893219
vn 0.000000 -0.449623 -0.893219
vn 1.000000 0.000000 -0.000000
vn 1.000000 0.000000 -0.000000
vn 1.000000 0.000000 -0.000000
vn 0.000000 0.379598 0.925152
vn 0.000000 0.379598 0.925152
vn 0.000000 0.379598 0.925152
vn -0.236510 -0.573708 -0.784169
vn -0.236510 -0.573708 -0.784169
vn -0.236510 -0.573708 -0.784169
vn 0.148892 -0.856812 0.493663
vn 0.148892 -0.856812 0.493663
vn 0.148892 -0.856812 0.493663
vn -0.253665 0.477802 0.841046
vn -0.253665 0.477802 0.841046
vn -0.253665 0.477802 0.841046
vn 0.148892 0.856813 -0.493663
vn 0.148892 0.856813 -0.493663
vn 0.148892 0.856813 -0.493663
vn 0.000000 -1.000000 -0.000000
vn 0.000000 -1.000000 -0.000000
vn 0.000000 -1.000000 -0.000000
vn 0.000000 1.000000 -0.000000
vn 0.000000 1.000000 -0.000000
vn 0.000000 1.000000 -0.000000
vn 0.000000 0.000000 1.000000
vn 0.000000 0.000000 1.000000
vn 0.000000 0.000000 1.000000
vn 1.000000 0.000000 -0.000000
vn 1.000000 0.000000 -0.000000
vn 1.000000 0.000000 -0.000000
vn 0.000000 0.000000 -1.000000
vn 0.000000 0.000000 -1.000000
vn 0.000000 0.000000 -1.000000
vn -1.000000 0.000000 -0.000000
vn -1.000000 0.000000 -0.000000
vn -1.000000 0.000000 -0.000000
vn -1.000000 0.000000 -0.000000
vn -1.000000 0.000000 -0.000000
vn -1.000000 0.000000 -0.000000
vn -0.000000 0.819088 -0.573668
vn -0.000000 0.819088 -0.573668
vn -0.000000 0.819088 -0.573668
vn 1.000000 0.000000 -0.000000
vn 1.000000 0.000000 -0.000000
vn 1.000000 0.000000 -0.000000
vn -0.000000 -0.819088 0.573668
vn -0.000000 -0.819088 0.573668
vn -0.000000 -0.819088 0.573668
vn 0.000000 1.000000 -0.000000
vn 0.000000 1.000000 -0.000000
vn 0.000000 1.000000 -0.000000
vn -0.226456 0.620456 -0.750834
vn -0.226456 0.620456 -0.750834
vn -0.226456 0.620456 -0.750834
vn -0.983219 -0.182430 -0.000000
vn -0.983219 -0.182430 -0.000000
vn -0.983219 -0.182430 -0.000000
vn 0.253665 0.477802 0.841046
vn 0.253665 0.477802 0.841046
vn 0.253665 0.477802 0.841046
vn 0.000000 1.000000 -0.000000
vn 0.000000 1.000000 -0.000000
vn 0.000000 1.000000 -0.000000
vn -0.226456 -0.620456 0.750834
vn -0.226456 -0.620456 0.750834
vn -0.226456 -0.620456 0.750834
vn 0.983219 -0.182429 -0.000000
vn 0.983219 -0.182429 -0.000000
vn 0.983219 -0.182429 -0.000000
vn 0.236510 -0.573708 -0.784169
vn 0.236510 -0.573708 -0.784169
vn 0.236510 -0.573708 -0.784169
vn -1.000000 0.000000 -0.000000
vn -1.000000 0.000000 -0.000000
vn -1.000000 0.000000 -0.000000
vn 0.000000 -0.449623 -0.893219
vn 0.000000 -0.449623 -0.893219
vn 0.000000 -0.449623 -0.893219
vn 1.000000 0.000000 -0.000000
vn 1.000000 0.000000 -0.000000
vn 1.000000 0.000000 -0.000000
vn 0.000000 0.379598 0.925151
vn 0.000000 0.379598 0.925151
vn 0.000000 0.379598 0.925151
vn -0.779242 -0.144583 -0.609817
vn -0.779242 -0.144583 -0.609817
vn -0.779242 -0.144583 -0.609817
vn 0.000000 -0.637005 0.770860
vn 0.000000 -0.637005 0.770860
vn 0.000000 -0.637005 0.770860
vn -0.714984 0.132660 0.686440
vn -0.714984 0.132660 0.686440
vn -0.714984 0.132660 0.686440
vn 0.000000 0.637005 -0.770860
vn 0.000000 0.637005 -0.770860
vn 0.000000 0.637005 -0.770860
# 156 vertex normals

vt 0.846761 0.344386 0.000000
vt 0.848548 0.344386 0.000000
vt 0.846761 0.346196 0.000000
vt 0.848548 0.346196 0.000000
vt 0.847645 0.345282 0.000000
vt 0.847663 0.345282 0.000000
vt 0.847645 0.345300 0.000000
vt 0.847663 0.345300 0.000000
vt 0.847645 0.345282 0.000000
vt 0.847663 0.345282 0.000000
vt 0.847645 0.345300 0.000000
vt 0.847663 0.345300 0.000000
vt 0.847645 0.345282 0.000000
vt 0.847663 0.345282 0.000000
vt 0.847645 0.345300 0.000000
vt 0.847663 0.345300 0.000000
vt 0.847645 0.345282 0.000000
vt 0.847663 0.345282 0.000000
vt 0.847645 0.345300 0.000000
vt 0.847663 0.345300 0.000000
vt 0.805431 0.363671 0.000000
vt 0.805431 0.367857 0.000000
vt 0.801244 0.367857 0.000000
vt 0.801244 0.363671 0.000000
vt 0.805431 0.363671 0.000000
vt 0.801244 0.363671 0.000000
vt 0.805431 0.367857 0.000000
vt 0.805431 0.363671 0.000000
vt 0.805431 0.363671 0.000000
vt 0.801244 0.363671 0.000000
vt 0.801244 0.363671 0.000000
vt 0.801244 0.367857 0.000000
vt 0.801773 0.363671 0.000000
vt 0.805431 0.364191 0.000000
vt 0.801244 0.364191 0.000000
vt 0.804916 0.363671 0.000000
vt 0.802095 0.364515 0.000000
vt 0.805431 0.363671 0.000000
vt 0.801244 0.363671 0.000000
vt 0.804593 0.364515 0.000000
vt 0.801244 0.363671 0.000000
vt 0.805431 0.363671 0.000000
vt 0.801244 0.363671 0.000000
vt 0.805431 0.363671 0.000000
vt 0.801244 0.363671 0.000000
vt 0.805431 0.363671 0.000000
vt 0.801244 0.363671 0.000000
vt 0.805431 0.363671 0.000000
# 48 texture coords

g Shovel_2
s 2
f 9/21/1 11/23/2 12/24/3 
s 4
f 5/1/4 8/4/5 7/3/6 
s 8
f 1/5/7 6/8/8 5/7/9 
s 16
f 2/9/10 8/12/11 6/11/12 
s 32
f 4/13/13 7/16/14 8/15/15 
s 64
f 3/17/16 5/20/17 7/19/18 
s off
f 13/25/19 14/26/20 26/38/21 
f 3/46/22 4/45/23 22/34/24 
f 17/29/25 18/30/26 28/40/27 
f 2/42/28 1/41/29 24/36/30 
f 1/48/31 14/26/32 13/25/33 
f 3/46/34 22/34/35 14/26/36 
f 10/22/37 16/28/38 15/27/39 
f 9/21/40 21/33/41 16/28/42 
f 4/44/43 18/30/44 17/29/45 
f 2/42/46 24/36/47 18/30/48 
f 12/24/49 20/32/50 19/31/51 
f 11/23/52 23/35/53 20/32/54 
f 25/37/55 15/27/56 26/38/57 
f 23/35/58 11/23/59 22/34/60 
f 27/39/61 19/31/62 28/40/63 
f 21/33/64 9/21/65 24/36/66 
f 22/34/67 15/27/68 25/37/69 
f 21/33/70 1/41/71 26/38/72 
f 24/36/73 19/31/74 27/39/75 
f 23/35/76 4/45/77 28/40/78 
s 2
f 9/21/79 10/22/80 11/23/81 
s 4
f 5/1/82 6/2/83 8/4/84 
s 8
f 1/5/85 2/6/86 6/8/87 
s 16
f 2/9/88 4/10/89 8/12/90 
s 32
f 4/13/91 3/14/92 7/16/93 
s 64
f 3/17/94 1/18/95 5/20/96 
s off
f 14/26/97 25/37/98 26/38/99 
f 4/45/100 23/35/101 22/34/102 
f 18/30/103 27/39/104 28/40/105 
f 1/41/106 21/33/107 24/36/108 
f 1/48/109 3/47/110 14/26/111 
f 22/34/112 25/37/113 14/26/114 
f 10/22/115 9/21/116 16/28/117 
f 21/33/118 26/38/119 16/28/120 
f 4/44/121 2/43/122 18/30/123 
f 24/36/124 27/39/125 18/30/126 
f 12/24/127 11/23/128 20/32/129 
f 23/35/130 28/40/131 20/32/132 
f 15/27/133 16/28/134 26/38/135 
f 11/23/136 10/22/137 22/34/138 
f 19/31/139 20/32/140 28/40/141 
f 9/21/142 12/24/143 24/36/144 
f 22/34/145 10/22/146 15/27/147 
f 1/41/148 13/25/149 26/38/150 
f 24/36/151 12/24/152 19/31/153 
f 4/45/154 17/29/155 28/40/156 
# 0 polygons - 52 triangles

